<svg width="0" height="0" class="hidden">
  <symbol fill="none" xmlns="http://www.w3.org/2000/svg" viewBox="0 0 12 6" id="ic-chevron">
    <path d="M1 1L6 5L11 1" stroke="#1E1E1E" stroke-width="1.5" stroke-linecap="round" stroke-linejoin="round"></path>
  </symbol>
  <symbol fill="none" xmlns="http://www.w3.org/2000/svg" viewBox="0 0 21 21" id="ic-search">
    <mask id="mask0_11703_3" maskUnits="userSpaceOnUse" x="0" y="0" width="20" height="20">
      <path fill-rule="evenodd" clip-rule="evenodd" d="M0 0H19.4768V19.477H0V0Z" fill="white"></path>
    </mask>
    <g mask="url(#mask0_11703_3)">
      <path fill-rule="evenodd" clip-rule="evenodd" d="M9.7388 1.5C5.1958 1.5 1.4998 5.195 1.4998 9.738C1.4998 14.281 5.1958 17.977 9.7388 17.977C14.2808 17.977 17.9768 14.281 17.9768 9.738C17.9768 5.195 14.2808 1.5 9.7388 1.5ZM9.7388 19.477C4.3688 19.477 -0.000198364 15.108 -0.000198364 9.738C-0.000198364 4.368 4.3688 0 9.7388 0C15.1088 0 19.4768 4.368 19.4768 9.738C19.4768 15.108 15.1088 19.477 9.7388 19.477Z" fill="#DFDFDF"></path>
    </g>
    <mask id="mask1_11703_3" maskUnits="userSpaceOnUse" x="15" y="15" width="6" height="6">
      <path fill-rule="evenodd" clip-rule="evenodd" d="M15.2399 15.7069H20.264V20.7217H15.2399V15.7069Z" fill="white"></path>
    </mask>
    <g mask="url(#mask1_11703_3)">
      <path fill-rule="evenodd" clip-rule="evenodd" d="M19.5142 20.7217C19.3232 20.7217 19.1312 20.6487 18.9842 20.5027L15.4602 16.9887C15.1672 16.6957 15.1662 16.2207 15.4592 15.9277C15.7512 15.6327 16.2262 15.6347 16.5202 15.9257L20.0442 19.4407C20.3372 19.7337 20.3382 20.2077 20.0452 20.5007C19.8992 20.6487 19.7062 20.7217 19.5142 20.7217Z" fill="#DFDFDF"></path>
    </g>
  </symbol>
</svg>